<svg width="701" height="701" viewBox="0 0 701 701" fill="none" xmlns="http://www.w3.org/2000/svg">
<path d="M291.922 46.6891C226.943 46.6891 164.625 72.5011 118.682 118.449C72.7342 164.392 46.9221 226.709 46.9221 291.689C46.9221 356.669 72.7342 418.986 118.682 464.929C164.625 510.877 226.942 536.689 291.922 536.689C356.902 536.689 419.219 510.877 465.162 464.929C511.11 418.986 536.922 356.669 536.922 291.689C536.849 226.73 511.016 164.46 465.083 118.529C419.151 72.5971 356.881 46.7638 291.923 46.6904L291.922 46.6891ZM291.922 70.0224C327.433 70.0485 362.417 78.6214 393.922 95.0064C425.427 111.392 452.531 135.116 472.943 164.173L443.777 193.34C436.678 189.043 428.553 186.746 420.255 186.689C407.881 186.689 396.01 191.605 387.255 200.355C378.505 209.111 373.589 220.981 373.589 233.355C373.63 241.657 375.917 249.798 380.203 256.913L303.807 333.309L303.813 333.303C296.714 328.975 288.567 326.689 280.255 326.689C271.943 326.689 263.797 328.975 256.698 333.303L203.635 280.241L203.64 280.246C207.927 273.131 210.213 264.991 210.255 256.689C210.276 241.434 202.817 227.137 190.302 218.413C177.781 209.694 161.786 207.657 147.484 212.965C133.178 218.272 122.38 230.246 118.578 245.022H75.2963C86.0151 195.511 113.348 151.162 152.755 119.329C192.156 87.4955 241.266 70.0942 291.928 70.0222L291.922 70.0224ZM396.922 233.356C396.922 227.168 399.381 221.231 403.755 216.856C408.13 212.481 414.068 210.022 420.255 210.022C426.443 210.022 432.381 212.481 436.755 216.856C441.13 221.231 443.589 227.168 443.589 233.356C443.589 239.543 441.13 245.481 436.755 249.856C432.381 254.231 426.443 256.689 420.255 256.689C414.068 256.689 408.13 254.231 403.755 249.856C399.381 245.481 396.922 239.543 396.922 233.356ZM280.255 350.022C286.443 350.022 292.381 352.481 296.755 356.856C301.13 361.231 303.589 367.168 303.589 373.356C303.589 379.543 301.13 385.481 296.755 389.856C292.381 394.231 286.443 396.689 280.255 396.689C274.068 396.689 268.13 394.231 263.755 389.856C259.381 385.481 256.922 379.543 256.922 373.356C256.922 367.168 259.381 361.231 263.755 356.856C268.13 352.481 274.068 350.022 280.255 350.022ZM163.589 280.022C157.401 280.022 151.464 277.564 147.089 273.189C142.714 268.814 140.255 262.877 140.255 256.689C140.255 250.502 142.714 244.564 147.089 240.189C151.464 235.814 157.401 233.356 163.589 233.356C169.776 233.356 175.714 235.814 180.089 240.189C184.464 244.564 186.922 250.502 186.922 256.689C186.922 262.877 184.464 268.814 180.089 273.189C175.714 277.564 169.776 280.022 163.589 280.022ZM291.922 513.356C250.359 513.382 209.625 501.72 174.375 479.689C139.13 457.662 110.791 426.162 92.5995 388.793C74.4061 351.424 67.0995 309.684 71.5062 268.356H118.579C121.158 278.345 126.975 287.194 135.115 293.528C143.261 299.861 153.271 303.32 163.589 303.356C171.891 303.314 180.031 301.028 187.146 296.741L240.209 349.804L240.204 349.799C235.917 356.913 233.631 365.054 233.589 373.356C233.589 390.028 242.485 405.435 256.922 413.772C271.36 422.105 289.152 422.105 303.589 413.772C318.026 405.434 326.922 390.027 326.922 373.356C326.881 365.054 324.594 356.914 320.308 349.799L396.704 273.403L396.699 273.408C403.813 277.694 411.953 279.981 420.256 280.023C432.631 280.023 444.501 275.106 453.256 266.356C462.006 257.601 466.923 245.731 466.923 233.356C466.881 225.054 464.595 216.913 460.308 209.799L485.74 184.377C510.823 229.549 519.319 282.065 509.767 332.844C500.215 383.62 473.209 429.453 433.428 462.423C393.641 495.387 343.589 513.407 291.921 513.36L291.922 513.356Z" fill="url(#paint0_linear_201_139)"/>
<path d="M583.589 23.3558C571.214 23.3558 559.344 28.2724 550.589 37.0224C541.839 45.7776 536.922 57.6478 536.922 70.0224C536.964 78.3246 539.25 86.4651 543.537 93.5798L523.037 114.074C476.761 53.7824 408.771 13.9344 333.543 3.02244C258.325 -7.88903 181.81 10.9912 120.303 55.6478C58.798 100.304 17.1527 167.21 4.24067 242.114C-8.67079 317.016 8.16254 393.994 51.1673 456.674C94.1673 519.352 159.938 562.762 234.474 577.664C309.01 592.57 386.421 577.794 450.207 536.476L485.421 571.684L595.833 682.096C611.286 697.549 633.806 703.585 654.911 697.929C676.021 692.273 692.505 675.789 698.162 654.678C703.818 633.574 697.782 611.053 682.329 595.6L536.715 449.986V449.981C567.309 402.856 583.59 347.877 583.59 291.688C583.59 235.499 567.309 180.521 536.715 133.395L560.049 110.061C567.153 114.353 575.289 116.639 583.59 116.686C593.908 116.65 603.918 113.192 612.063 106.858C620.204 100.525 626.022 91.6755 628.599 81.6862H700.255V58.3528H628.599C626.021 48.3632 620.204 39.5142 612.063 33.1808C603.918 26.8475 593.907 23.3891 583.59 23.3527L583.589 23.3558ZM665.839 612.102C673.069 619.17 677.168 628.837 677.225 638.946C677.282 649.056 673.293 658.764 666.147 665.916C658.996 673.062 649.287 677.051 639.178 676.994C629.068 676.937 619.401 672.838 612.333 665.608L518.416 571.691L571.922 518.186L665.839 612.102ZM523.133 469.396L555.43 501.688L501.925 555.193L469.633 522.901C471.279 521.641 472.82 520.255 474.44 518.958C476.06 517.662 477.94 516.109 479.68 514.651C482.237 512.505 484.753 510.333 487.227 508.104C488.498 506.938 489.711 505.771 490.961 504.604C495.742 500.125 500.378 495.495 504.857 490.708C506.024 489.458 507.19 488.245 508.357 486.974C510.586 484.5 512.753 481.979 514.904 479.427C516.368 477.698 517.8 475.953 519.211 474.187C520.487 472.578 521.872 471.042 523.133 469.396ZM510.185 447.5C506.508 452.635 502.716 457.661 498.716 462.505C497.549 463.917 496.3 465.281 495.102 466.672C491.534 470.823 487.846 474.854 484.039 478.76C482.383 480.474 480.701 482.156 478.987 483.812C475.096 487.615 471.07 491.302 466.898 494.875C465.508 496.042 464.143 497.312 462.732 498.49C457.888 502.49 452.862 506.281 447.726 509.958L447.732 509.948C392.857 549.151 325.242 566.292 258.318 557.964C191.392 549.636 130.042 516.448 86.4383 464.991C42.8449 413.532 20.1876 347.569 22.9743 280.177C25.7555 212.792 53.7716 148.912 101.458 101.231C149.145 53.5492 213.026 25.5279 280.405 22.7466C347.79 19.9602 413.752 42.6159 465.218 86.2106C516.677 129.809 549.864 191.159 558.192 258.091C566.52 325.012 549.379 392.624 510.176 447.504L510.185 447.5ZM583.592 93.3531C577.404 93.3531 571.467 90.8947 567.092 86.5198C562.717 82.1448 560.258 76.2072 560.258 70.0198C560.258 63.8323 562.717 57.8947 567.092 53.5198C571.467 49.1448 577.404 46.6864 583.592 46.6864C589.779 46.6864 595.717 49.1448 600.092 53.5198C604.467 57.8947 606.925 63.8323 606.925 70.0198C606.925 76.2072 604.467 82.1448 600.092 86.5198C595.717 90.8947 589.779 93.3531 583.592 93.3531Z" fill="url(#paint1_linear_201_139)"/>
<defs>
<linearGradient id="paint0_linear_201_139" x1="291.922" y1="46.6891" x2="291.922" y2="536.689" gradientUnits="userSpaceOnUse">
<stop stop-color="#11B466"/>
<stop offset="1" stop-color="#F1291C" stop-opacity="0.79"/>
</linearGradient>
<linearGradient id="paint1_linear_201_139" x1="350.128" y1="0" x2="350.128" y2="700.015" gradientUnits="userSpaceOnUse">
<stop stop-color="#11B466"/>
<stop offset="1" stop-color="#F1291C" stop-opacity="0.79"/>
</linearGradient>
</defs>
</svg>
